<?xml version="1.0" encoding="utf-8"?>
<!-- Generator: Adobe Illustrator 15.0.0, SVG Export Plug-In . SVG Version: 6.00 Build 0)  -->
<!DOCTYPE svg PUBLIC "-//W3C//DTD SVG 1.1//EN" "http://www.w3.org/Graphics/SVG/1.1/DTD/svg11.dtd">
<svg version="1.1" id="Layer_1" xmlns="http://www.w3.org/2000/svg" xmlns:xlink="http://www.w3.org/1999/xlink" x="0px" y="0px"
	 width="293.771px" height="279.805px" viewBox="0 0 293.771 279.805" enable-background="new 0 0 293.771 279.805"
	 xml:space="preserve">
<g>
	<g>
		<g id="LINE_199_">
			<polygon fill="#969696" points="116.971,37.183 96.658,37.183 19.427,152.43 146.89,244.013 274.349,152.43 197.117,37.183 
				176.809,37.183 173.307,31.969 203.588,31.969 293.772,153.816 146.89,279.805 0,153.816 90.187,31.969 120.472,31.969 			"/>
		</g>
		<g id="LINE_198_">
			<polygon fill="#969696" points="31.308,188.949 17.525,210.252 55.212,210.252 65.683,219.579 2.188,219.579 25.678,183.933 			
				"/>
		</g>
		<g id="LINE_197_">
			<polygon fill="#969696" points="262.464,188.949 276.249,210.252 238.56,210.252 228.092,219.579 291.586,219.579 
				268.097,183.933 			"/>
		</g>
		<g id="LINE_196_">
			<polygon fill="#969696" points="134.794,37.183 158.978,37.183 155.729,31.969 138.042,31.969 			"/>
		</g>
		<g id="LINE_195_">
			<polygon fill="#969696" points="46.529,165.428 146.89,10.328 247.25,165.428 253.222,161.355 146.89,0 40.556,161.355 			"/>
		</g>
		<g id="LINE_194_">
			<polygon fill="#969696" points="112.309,210.252 181.466,210.252 167.777,219.579 126.002,219.579 			"/>
		</g>
	</g>
	<g>
		<path fill="#969696" d="M71.7,140.281h31.01v38.988h-7.872v-32.445H79.573v32.445H71.7V140.281z"/>
		<path fill="#969696" d="M110.849,140.281h31.011v38.988h-7.871v-32.445h-15.268v32.445h-7.872V140.281z"/>
		<path fill="#969696" d="M149.785,179.27v-38.989h11.78l7.075,26.596l6.994-26.596h11.809v38.988h-7.313v-30.689l-7.739,30.689
			h-7.581l-7.712-30.689v30.689L149.785,179.27L149.785,179.27z"/>
		<path fill="#969696" d="M195.664,140.281h26.409v6.543h-18.537v32.445h-7.872V140.281z"/>
	</g>
</g>
</svg>
